# xmcd CD database file
#
# Track frame offsets:
#	150
#	17487
#	36714
#	62537
#	77657
#	92083
#	106752
#	124475
#	142807
#	158984
#	169404
#
# Disc length: 2452 seconds
#
# Revision: 0
# Processed by: cddbd v1.5.2PL0 Copyright (c) Steve Scherf et al.
# Submitted via: CDex 1.51
#
DISCID=8d09920b
DTITLE=Charly And The Outlaws - Eleven Original Songs
DYEAR=2015
DGENRE=Country
TTITLE0=One Last Town To Rock
TTITLE1=Be Allright
TTITLE2=That Lost Place
TTITLE3=Cuz We Ain't Getting Any Younger
TTITLE4=No Mama No
TTITLE5=Anymore
TTITLE6=I Miss You
TTITLE7=California
TTITLE8=Country Singer Blues
TTITLE9=It's Only Been An Hour
TTITLE10=Good Bye
EXTD=YEAR: 2015
EXTT0=
EXTT1=
EXTT2=
EXTT3=
EXTT4=
EXTT5=
EXTT6=
EXTT7=
EXTT8=
EXTT9=
EXTT10=
PLAYORDER=
